<svg width="390" height="110" viewBox="0 0 390 110" fill="none" xmlns="http://www.w3.org/2000/svg">
<path fill-rule="evenodd" clip-rule="evenodd" d="M204.049 54.8827C204.049 38.8038 217.098 25.7692 233.162 25.7692C249.238 25.7692 262.287 38.8018 262.287 54.8827C262.287 57.4896 260.172 59.6041 257.567 59.6041H214.085L214.375 60.732C216.869 68.7411 224.346 74.559 233.162 74.559C239.175 74.559 244.644 72.4151 248.025 68.794C249.803 66.8893 252.792 66.7873 254.697 68.5665C256.602 70.3436 256.704 73.3331 254.925 75.2377C249.404 81.1499 241.224 84 233.162 84C217.096 84 204.049 70.9556 204.049 54.8827ZM145 77.8721V51.6873C145 37.3679 156.623 25.7477 170.947 25.7477C185.271 25.7477 196.897 37.366 196.897 51.6873V77.8721C196.897 80.479 194.783 82.5936 192.177 82.5936C189.57 82.5936 187.456 80.479 187.456 77.8721V51.6873C187.456 42.5857 180.058 35.1886 170.947 35.1886C161.835 35.1886 154.441 42.5837 154.441 51.6873V77.8721C154.441 80.479 152.327 82.5936 149.722 82.5936C147.115 82.5936 145 80.479 145 77.8721ZM317.473 54.1687C317.473 38.4899 330.21 25.7594 345.892 25.7594C361.575 25.7594 374.306 38.4899 374.306 54.1687C374.306 61.6677 371.387 68.49 366.652 73.5606C361.467 79.1059 354.082 82.5857 345.892 82.5857C330.208 82.5857 317.473 69.8513 317.473 54.1687ZM285.432 80.8223C283.684 79.4747 282.431 77.5347 281.53 75.4672L262.753 32.3777C261.714 29.9885 262.806 27.2051 265.196 26.1635C267.585 25.1239 270.369 26.2165 271.41 28.6057L290.187 71.6991L290.342 72.0188L290.499 71.6971L309.27 28.6057C310.312 26.2184 313.095 25.1239 315.484 26.1635C317.872 27.2051 318.966 29.9885 317.927 32.3777L299.156 75.4692C298.253 77.5386 296.996 79.4806 295.246 80.8282C292.233 83.1487 288.441 83.1448 285.432 80.8223ZM359.753 67.113C362.927 63.7175 364.865 59.1745 364.865 54.1687C364.865 43.7057 356.363 35.2004 345.892 35.2004C335.423 35.2004 326.915 43.7057 326.915 54.1687C326.915 64.6355 335.424 73.1447 345.892 73.1447C351.353 73.1447 356.275 70.834 359.753 67.113ZM252.249 50.1632L251.959 49.0353C249.465 41.0282 241.991 35.2102 233.162 35.2102C224.345 35.2102 216.869 41.0262 214.375 49.0353L214.085 50.1632H252.249Z" fill="white"/>
<path fill-rule="evenodd" clip-rule="evenodd" d="M374.532 32.3619C374.532 28.3054 377.83 25.0002 381.9 25.0002C385.963 25.0002 389.262 28.3054 389.262 32.3619C389.262 34.3136 388.513 36.081 387.275 37.3972C385.937 38.8311 384.021 39.7412 381.9 39.7412C377.83 39.7412 374.532 36.4321 374.532 32.3619ZM386.396 36.5753C387.418 35.469 388.05 33.9919 388.05 32.3619C388.05 28.9743 385.288 26.2163 381.9 26.2163C378.503 26.2163 375.743 28.9743 375.743 32.3619C375.743 35.7632 378.503 38.5211 381.9 38.5211C383.672 38.5211 385.266 37.7699 386.396 36.5753ZM379.411 36.3105V28.427H382.185C383.093 28.427 383.797 28.629 384.293 29.039C384.784 29.445 385.029 30.0394 385.029 30.8103C385.029 31.3419 384.905 31.7793 384.652 32.1363C384.399 32.4874 384.044 32.7659 383.583 32.9542L385.355 36.2438V36.3105H383.887L382.306 33.274H380.778V36.3105H379.411ZM383.275 31.8244C383.534 31.5929 383.66 31.2693 383.66 30.8652C383.66 30.4494 383.542 30.1198 383.305 29.8864C383.065 29.6588 382.702 29.5333 382.23 29.5333H380.778V32.1736H382.185C382.655 32.1736 383.016 32.0559 383.275 31.8244Z" fill="white"/>
<path fill-rule="evenodd" clip-rule="evenodd" d="M55 110C85.3757 110 110 85.3757 110 55C110 24.6243 85.3757 0 55 0C24.6243 0 0 24.6243 0 55C0 85.3757 24.6243 110 55 110ZM26.5194 44.7171L26.5194 74.2177C26.5243 74.2225 26.5302 74.2261 26.5329 74.2272L26.5356 74.2281C26.5363 74.2282 26.539 74.2287 26.5447 74.2287H83.4534C83.4566 74.2287 83.4605 74.2283 83.4618 74.2281L83.465 74.2271C83.4664 74.2265 83.4685 74.2254 83.4709 74.2238C83.474 74.2218 83.4775 74.2192 83.4806 74.2162L83.4806 44.7158L83.4805 44.7146C83.4796 44.7058 83.4745 44.6538 83.4452 44.5605C83.4095 44.4469 83.3496 44.3102 83.2647 44.1689C83.1798 44.0276 83.0863 43.9091 83.0009 43.8218C82.9281 43.7475 82.8818 43.7165 82.8746 43.7117L82.8736 43.7111L82.8706 43.7094L55.6289 28.6032L55.6278 28.6027C55.6195 28.599 55.5666 28.5753 55.4597 28.5514C55.3342 28.5233 55.1755 28.5043 54.9999 28.5043C54.8243 28.5043 54.6646 28.5233 54.5373 28.5517C54.4242 28.577 54.3688 28.6023 54.3613 28.6058L54.3605 28.6062L27.1345 43.7094C27.1345 43.7094 27.1342 43.7097 27.1336 43.7101C27.1265 43.7148 27.0786 43.7465 27.0035 43.8232C26.9166 43.9119 26.8219 44.0317 26.7361 44.1738C26.6503 44.316 26.5901 44.4529 26.5544 44.566C26.5258 44.6564 26.5205 44.7068 26.5195 44.7156L26.5194 44.7171ZM26.5447 80.5332C22.9611 80.5332 20 77.7313 20 74.2254V44.7127C20 43.3319 20.4849 42.0243 21.1055 40.996C21.7269 39.9665 22.6627 38.9208 23.893 38.2395L51.1289 23.1307L51.1406 23.1243C52.3692 22.4492 53.772 22.1998 54.9999 22.1998C56.2269 22.1998 57.6316 22.4489 58.8607 23.1278L86.1089 38.2377L86.1137 38.2403C87.3475 38.9232 88.2821 39.9708 88.9013 41.001C89.5208 42.0318 90 43.3373 90 44.7127V74.2254C90 77.7348 87.0315 80.5332 83.4534 80.5332H26.5447ZM60.8334 57.2031V57.1965C60.8334 53.979 63.4471 51.3667 66.6664 51.3667H66.6671C69.8864 51.3667 72.5001 53.979 72.5001 57.1965V57.2031C72.5001 60.421 69.8864 63.0333 66.6671 63.0333H66.6664C63.4471 63.0333 60.8334 60.421 60.8334 57.2031ZM37.5 57.1973V57.2027C37.5 60.4209 40.1133 63.0333 43.3326 63.0333H43.3345C46.5533 63.0333 49.1667 60.4209 49.1667 57.2027V57.1973C49.1667 53.9791 46.5533 51.3667 43.3345 51.3667H43.3326C40.1133 51.3667 37.5 53.9791 37.5 57.1973Z" fill="white"/>
</svg>
